<mxfile host="app.diagrams.net" modified="2023-06-19T13:37:44.649Z" agent="Mozilla/5.0 (Windows NT 10.0; Win64; x64) AppleWebKit/537.36 (KHTML, like Gecko) Chrome/114.0.0.0 Safari/537.36" version="21.5.0" etag="yW-ZAKwNhIhRyn8dFTCZ" type="github">
  <diagram name="Page-1" id="NHtS7B7-e4HNB29FFHbK">
    <mxGraphModel>
      <root>
        <mxCell id="0" />
        <mxCell id="1" parent="0" />
      </root>
    </mxGraphModel>
  </diagram>
</mxfile>
